<svg xmlns="http://www.w3.org/2000/svg" width="101.412" height="101.404" viewBox="0 0 101.412 101.404">
  <path id="repair" d="M112.011,119.763c2.006,1.857,3.909,3.622,5.479,5.078,2.052-1.891,4.138-3.771,6.167-5.708a1.98,1.98,0,0,0,.321-1.055,29.881,29.881,0,0,1,.688-4.31,10.34,10.34,0,0,1,10.4-7.026,1.542,1.542,0,0,0,1.043-.493q10.884-11.193,21.733-22.409c1.719-1.777,3.427-3.565,5.135-5.341-.092-.138-.126-.229-.183-.3-3.622-3.748-7.267-7.5-10.878-11.256-1.364-1.421-2.682-2.889-4.023-4.344h-.39c-.08.1-.149.206-.241.309q-13.222,13.617-26.409,27.28a2.156,2.156,0,0,0-.585,1.41c.355,5.5-3.851,10.74-9.342,11.118A5.5,5.5,0,0,0,106.475,105a7.906,7.906,0,0,1-.688.7c-1.146,1.192-2.292,2.384-3.485,3.622,1.857,1.937,3.657,3.806,5.5,5.72Q94.273,129,80.845,142.882l-1.02-.894c-3.015,2.315-5.823,4.688-7.645,8.127-1.914,3.588-4.207,6.969-6.316,10.4.791.814,1.524,1.582,2.292,2.373.149-.08.3-.149.436-.241,3.519-2.3,7.049-4.6,10.557-6.9a14.807,14.807,0,0,0,2.877-2.006c1.49-1.639,2.774-3.45,4.149-5.2l-.94-1.112c8.986-9.307,17.962-18.569,26.776-27.659ZM90.118,108.415a1.283,1.283,0,0,1,1.055.3c1.192,1.158,2.292,2.419,3.5,3.565,2.143,2.04,4.344,4.023,6.35,5.869.963-.837,2.235-1.949,3.84-3.358-2.086-1.845-4.035-3.576-5.972-5.3.275-.321.344-.447.424-.539,2.682-2.762,5.353-5.536,8.047-8.276a1.673,1.673,0,0,1,1.02-.332c1.032-.046,2.075-.011,3.106-.011-2.075-2.476-4.184-4.642-6.258-6.843a1.423,1.423,0,0,1-.321-1.077A21.953,21.953,0,0,0,101.8,74.739c-4.906-7.256-11.841-10.465-20.586-9.548-.906.092-1.788.355-2.854.573,1.639,1.7,3.118,3.221,4.585,4.745,2.373,2.464,4.768,4.917,7.118,7.416A1.393,1.393,0,0,1,90.336,79q-1.341,5.45-2.8,10.866a1.46,1.46,0,0,1-.848.86c-3.473,1-6.958,1.914-10.431,2.9a1.009,1.009,0,0,1-1.181-.321c-3.118-3.244-6.258-6.476-9.388-9.709-.722-.745-1.467-1.479-2.292-2.3-.264,1.226-.481,2.235-.7,3.244v5.284a2.355,2.355,0,0,1,.183.436A21.445,21.445,0,0,0,90.118,108.415Zm51.821,23.051c-3.714-3.851-7.416-7.714-11.164-11.531-1.387-1.41-2.877-2.717-4.344-4.092a2.415,2.415,0,0,0-.092.8c.527,2.407-.653,4.023-2.361,5.513-2.258,1.972-4.413,4.058-6.488,5.972-1.616-1.5-3.53-3.267-5.25-4.86q-1.754,1.582-3.7,3.336c2.625,2.728,5.112,5.319,7.611,7.9q10.041,10.368,20.094,20.735a70.713,70.713,0,0,0,5.319,5.33,9.807,9.807,0,0,0,13.457-.928c3.714-3.943,3.92-10.408.3-14.259C150.914,140.659,146.4,136.085,141.939,131.466Zm9.262,24.507c-.046.172-.367.332-.585.4-1.284.367-2.556.734-3.863,1.032a1.253,1.253,0,0,1-.986-.241c-1.123-1.077-2.224-2.2-3.278-3.358a1.3,1.3,0,0,1-.264-1.02c.287-1.33.63-2.659,1.032-3.955a1.255,1.255,0,0,1,.711-.757c1.3-.413,2.625-.768,3.943-1.066a1.17,1.17,0,0,1,.894.264c1.123,1.089,2.2,2.212,3.29,3.347a3.051,3.051,0,0,1,.367.608c-.436,1.662-.825,3.209-1.261,4.745Z" transform="translate(-62.2 -62.1)" fill="#fff" stroke="rgba(112,112,112,0.2)" stroke-width="1"/>
</svg>
